<svg xmlns="http://www.w3.org/2000/svg" width="1050" height="650" viewBox="0 0 1050 650">
<rect width="100%" height="100%" fill="white"/>
<text x="525" y="30" text-anchor="middle" font-family="Arial" font-size="20" font-weight="bold">Supported Hard TEST POR@30 vs Realized Write Rate</text>
<text x="525" y="52" text-anchor="middle" font-family="Arial" font-size="12">Y-axis shown from 0.70 to 0.78 for readability</text>
<line x1="128.53658536585365" y1="75" x2="128.53658536585365" y2="560" stroke="#eeeeee"/>
<text x="128.53658536585365" y="595" text-anchor="middle" font-family="Arial" font-size="12">0.05</text>
<line x1="221.21951219512195" y1="75" x2="221.21951219512195" y2="560" stroke="#eeeeee"/>
<text x="221.21951219512195" y="595" text-anchor="middle" font-family="Arial" font-size="12">0.10</text>
<line x1="313.9024390243902" y1="75" x2="313.9024390243902" y2="560" stroke="#eeeeee"/>
<text x="313.9024390243902" y="595" text-anchor="middle" font-family="Arial" font-size="12">0.15</text>
<line x1="406.5853658536585" y1="75" x2="406.5853658536585" y2="560" stroke="#eeeeee"/>
<text x="406.5853658536585" y="595" text-anchor="middle" font-family="Arial" font-size="12">0.20</text>
<line x1="499.26829268292676" y1="75" x2="499.26829268292676" y2="560" stroke="#eeeeee"/>
<text x="499.26829268292676" y="595" text-anchor="middle" font-family="Arial" font-size="12">0.25</text>
<line x1="591.9512195121952" y1="75" x2="591.9512195121952" y2="560" stroke="#eeeeee"/>
<text x="591.9512195121952" y="595" text-anchor="middle" font-family="Arial" font-size="12">0.30</text>
<line x1="684.6341463414633" y1="75" x2="684.6341463414633" y2="560" stroke="#eeeeee"/>
<text x="684.6341463414633" y="595" text-anchor="middle" font-family="Arial" font-size="12">0.35</text>
<line x1="777.3170731707318" y1="75" x2="777.3170731707318" y2="560" stroke="#eeeeee"/>
<text x="777.3170731707318" y="595" text-anchor="middle" font-family="Arial" font-size="12">0.40</text>
<line x1="870.0" y1="75" x2="870.0" y2="560" stroke="#eeeeee"/>
<text x="870.0" y="595" text-anchor="middle" font-family="Arial" font-size="12">0.45</text>
<line x1="110" y1="560.0" x2="870" y2="560.0" stroke="#eeeeee"/>
<text x="98" y="564.0" text-anchor="end" font-family="Arial" font-size="12">0.70</text>
<line x1="110" y1="499.375" x2="870" y2="499.375" stroke="#eeeeee"/>
<text x="98" y="503.375" text-anchor="end" font-family="Arial" font-size="12">0.71</text>
<line x1="110" y1="438.75" x2="870" y2="438.75" stroke="#eeeeee"/>
<text x="98" y="442.75" text-anchor="end" font-family="Arial" font-size="12">0.72</text>
<line x1="110" y1="378.125" x2="870" y2="378.125" stroke="#eeeeee"/>
<text x="98" y="382.125" text-anchor="end" font-family="Arial" font-size="12">0.73</text>
<line x1="110" y1="317.5" x2="870" y2="317.5" stroke="#eeeeee"/>
<text x="98" y="321.5" text-anchor="end" font-family="Arial" font-size="12">0.74</text>
<line x1="110" y1="256.875" x2="870" y2="256.875" stroke="#eeeeee"/>
<text x="98" y="260.875" text-anchor="end" font-family="Arial" font-size="12">0.75</text>
<line x1="110" y1="196.25" x2="870" y2="196.25" stroke="#eeeeee"/>
<text x="98" y="200.25" text-anchor="end" font-family="Arial" font-size="12">0.76</text>
<line x1="110" y1="135.625" x2="870" y2="135.625" stroke="#eeeeee"/>
<text x="98" y="139.625" text-anchor="end" font-family="Arial" font-size="12">0.77</text>
<line x1="110" y1="75.0" x2="870" y2="75.0" stroke="#eeeeee"/>
<text x="98" y="79.0" text-anchor="end" font-family="Arial" font-size="12">0.78</text>
<polyline points="243.7623318019731,250.88438735177868 465.4695672751307,310.7905138339917 628.8817534210806,394.65909090909065" fill="none" stroke="#1f77b4" stroke-width="2.5"/>
<circle cx="243.7623318019731" cy="250.88438735177868" r="4" fill="#1f77b4"/>
<circle cx="465.4695672751307" cy="310.7905138339917" r="4" fill="#1f77b4"/>
<circle cx="628.8817534210806" cy="394.65909090909065" r="4" fill="#1f77b4"/>
<line x1="900" y1="95" x2="928" y2="95" stroke="#1f77b4" stroke-width="3"/>
<text x="938" y="100" font-family="Arial" font-size="13">B1</text>
<polyline points="176.63000106080017,418.62154150197586 435.2367624378819,334.75296442687767 635.0833544133368,214.94071146245085 777.1000171360027,286.8280632411065" fill="none" stroke="#ff7f0e" stroke-width="2.5"/>
<circle cx="176.63000106080017" cy="418.62154150197586" r="4" fill="#ff7f0e"/>
<circle cx="435.2367624378819" cy="334.75296442687767" r="4" fill="#ff7f0e"/>
<circle cx="635.0833544133368" cy="214.94071146245085" r="4" fill="#ff7f0e"/>
<circle cx="777.1000171360027" cy="286.8280632411065" r="4" fill="#ff7f0e"/>
<line x1="900" y1="121" x2="928" y2="121" stroke="#ff7f0e" stroke-width="3"/>
<text x="938" y="126" font-family="Arial" font-size="13">B2</text>
<polyline points="191.04872336779573,418.62154150197586 400.35275685644103,346.73418972332024 574.4627047140327,167.01581027667976 775.5496168879387,250.88438735177868" fill="none" stroke="#2ca02c" stroke-width="2.5"/>
<circle cx="191.04872336779573" cy="418.62154150197586" r="4" fill="#2ca02c"/>
<circle cx="400.35275685644103" cy="346.73418972332024" r="4" fill="#2ca02c"/>
<circle cx="574.4627047140327" cy="167.01581027667976" r="4" fill="#2ca02c"/>
<circle cx="775.5496168879387" cy="250.88438735177868" r="4" fill="#2ca02c"/>
<line x1="900" y1="147" x2="928" y2="147" stroke="#2ca02c" stroke-width="3"/>
<text x="938" y="152" font-family="Arial" font-size="13">B3-S</text>
<polyline points="180.04088160654106,298.80928853754915 378.0269932843189,226.92193675889348 577.7185452349672,167.01581027667976 791.0536193685791,346.73418972332024" fill="none" stroke="#d62728" stroke-width="2.5"/>
<circle cx="180.04088160654106" cy="298.80928853754915" r="4" fill="#d62728"/>
<circle cx="378.0269932843189" cy="226.92193675889348" r="4" fill="#d62728"/>
<circle cx="577.7185452349672" cy="167.01581027667976" r="4" fill="#d62728"/>
<circle cx="791.0536193685791" cy="346.73418972332024" r="4" fill="#d62728"/>
<line x1="900" y1="173" x2="928" y2="173" stroke="#d62728" stroke-width="3"/>
<text x="938" y="178" font-family="Arial" font-size="13">B3-R</text>
<polyline points="132.28855396616865,382.6778656126481 385.00379440060703,370.69664031620545 606.7110298737648,238.9031620553361 829.3485054957608,262.8656126482213" fill="none" stroke="#9467bd" stroke-width="2.5"/>
<circle cx="132.28855396616865" cy="382.6778656126481" r="4" fill="#9467bd"/>
<circle cx="385.00379440060703" cy="370.69664031620545" r="4" fill="#9467bd"/>
<circle cx="606.7110298737648" cy="238.9031620553361" r="4" fill="#9467bd"/>
<circle cx="829.3485054957608" cy="262.8656126482213" r="4" fill="#9467bd"/>
<line x1="900" y1="199" x2="928" y2="199" stroke="#9467bd" stroke-width="3"/>
<text x="938" y="204" font-family="Arial" font-size="13">B5</text>
<text x="490.0" y="632" text-anchor="middle" font-family="Arial" font-size="15">Realized physical write rate</text>
<text x="48" y="317.5" transform="rotate(-90 32 317.5)" text-anchor="middle" font-family="Arial" font-size="15">POR@30</text>
</svg>